<svg xmlns="http://www.w3.org/2000/svg"  viewBox="0 0 64 64" width="512px" height="512px"><radialGradient id="Dwg4AOCVwQXVLSVxk_rP8a" cx="9.5" cy="4.5" r="2.5" gradientUnits="userSpaceOnUse"><stop offset="0" stop-color="#f7e9c2"/><stop offset=".219" stop-color="#fbeecc"/><stop offset=".644" stop-color="#fff3db"/><stop offset="1" stop-color="#fff5e0"/></radialGradient><circle cx="9.5" cy="4.5" r="2.5" fill="url(#Dwg4AOCVwQXVLSVxk_rP8a)"/><radialGradient id="Dwg4AOCVwQXVLSVxk_rP8b" cx="31.5" cy="31.5" r="29.5" gradientUnits="userSpaceOnUse"><stop offset="0" stop-color="#f7e9c2"/><stop offset=".219" stop-color="#fbeecc"/><stop offset=".644" stop-color="#fff3db"/><stop offset="1" stop-color="#fff5e0"/></radialGradient><path fill="url(#Dwg4AOCVwQXVLSVxk_rP8b)" d="M54.988,51.1c-0.015-0.029-0.044-0.069-0.061-0.1H46.5c-0.828,0-1.5-0.672-1.5-1.5	s0.672-1.5,1.5-1.5h6.724H56c2.761,0,5-2.239,5-5s-2.239-5-5-5h-8v-4l9.501-0.002c1.933,0,3.499-1.566,3.499-3.499	C61,28.567,59.433,27,57.501,27H54.5c-1.381,0-2.5-1.119-2.5-2.5s1.119-2.5,2.5-2.5H56c2.209,0,4-1.791,4-4s-1.791-4-4-4H42.5	c-0.828,0-1.5-0.672-1.5-1.5s0.672-1.5,1.5-1.5h10c2.485,0,4.5-2.015,4.5-4.5S54.985,2,52.5,2h-36c-1.466,0-2.637,1.26-2.487,2.757	C14.143,6.059,15.335,7,16.643,7h4.882C22.892,7,24,8.108,24,9.475C24,10.87,22.87,12,21.475,12H6c-1.105,0-2,0.895-2,2s0.895,2,2,2	h7.5c0.828,0,1.5,0.672,1.5,1.5S14.328,19,13.5,19H10c-3.314,0-6,2.686-6,6c0,3.314,2.686,6,6,6h0.5H15v8H6.5	C4.015,39,2,41.015,2,43.5S4.015,48,6.5,48h9c0.155,0,0.302-0.03,0.453-0.046c-0.002,0.016-0.009,0.03-0.011,0.046H17.5	c0.828,0,1.5,0.672,1.5,1.5S18.328,51,17.5,51h-5.197h-1.602H10c-2.761,0-5,2.239-5,5s2.239,5,5,5h23.732H38h3h13h1	c0.486,0,0.682-0.118,0.724-0.324C57.632,59.972,59,58.153,59,56C59,53.577,57.276,51.559,54.988,51.1z"/><polygon fill="#fff" points="40.909,29.907 32,16.342 23.091,29.907 23.091,38.816 40.909,38.816"/><path fill="#00acc1" d="M40.909,39.816H23.091c-0.552,0-1-0.447-1-1v-8.909c0-0.195,0.057-0.386,0.164-0.549l8.909-13.564 c0.37-0.563,1.302-0.563,1.672,0l8.909,13.564c0.107,0.163,0.164,0.354,0.164,0.549v8.909 C41.909,39.368,41.462,39.816,40.909,39.816z M24.091,37.816h15.818v-7.61L32,18.164l-7.909,12.042V37.816z"/><polygon fill="#fff" points="18,29.907 4,24.816 9.091,38.816 18,38.816"/><path fill="#00acc1" d="M18,39.816H9.091c-0.42,0-0.796-0.263-0.94-0.658l-5.091-14c-0.133-0.365-0.042-0.774,0.233-1.049 c0.275-0.274,0.685-0.366,1.049-0.233l14,5.091c0.395,0.144,0.658,0.52,0.658,0.94v8.909C19,39.368,18.552,39.816,18,39.816z M9.791,37.816H17v-7.208L5.672,26.488L9.791,37.816z"/><polygon fill="#fff" points="46,29.907 60,24.816 54.909,38.816 46,38.816"/><path fill="#00acc1" d="M54.909,39.816H46c-0.553,0-1-0.447-1-1v-8.909c0-0.42,0.263-0.796,0.658-0.94l14-5.091 c0.366-0.133,0.775-0.042,1.049,0.233c0.274,0.274,0.365,0.684,0.232,1.049l-5.091,14C55.705,39.553,55.33,39.816,54.909,39.816z M47,37.816h7.209l4.119-11.328L47,30.607V37.816z"/><linearGradient id="Dwg4AOCVwQXVLSVxk_rP8c" x1="32" x2="32" y1="2.947" y2="42.986" gradientUnits="userSpaceOnUse"><stop offset="0" stop-color="#7ddefb"/><stop offset="1" stop-color="#3cb5ea"/></linearGradient><path fill="url(#Dwg4AOCVwQXVLSVxk_rP8c)" d="M23.091,40h17.818c0.553,0,1-0.447,1-1v-8.982c0-0.194-0.057-0.383-0.162-0.546l-8.909-13.675	c-0.369-0.566-1.307-0.566-1.676,0l-8.909,13.675c-0.106,0.163-0.162,0.352-0.162,0.546V39C22.091,39.553,22.539,40,23.091,40z M34.668,22.27L39.704,30H24.296l5.036-7.73H34.668z M18,40c0.552,0,1-0.447,1-1v-9.026c0-0.419-0.261-0.793-0.654-0.938l-14-5.158	c-0.363-0.134-0.774-0.045-1.05,0.229s-0.368,0.682-0.237,1.048l5.091,14.185C8.292,39.735,8.669,40,9.091,40H18z M17,30.801	l-7.411,6.626l-2.776-7.736l2.357-1.905L17,30.671V30.801z M5.701,26.508l0.07,0.283l-0.106-0.296L5.701,26.508z M60.704,24.106	c-0.276-0.274-0.688-0.363-1.05-0.229l-14,5.158C45.261,29.18,45,29.555,45,29.974V39c0,0.553,0.447,1,1,1h8.909	c0.422,0,0.799-0.265,0.941-0.662l5.091-14.185C61.072,24.788,60.98,24.379,60.704,24.106z M54.831,27.786l2.357,1.905l-2.776,7.736	L47,30.801v-0.13L54.831,27.786z M58.229,26.791l0.07-0.283l0.036-0.013L58.229,26.791z M55.422,43.906c0,0.553-0.447,1-1,1H9.578	c-0.552,0-1-0.447-1-1s0.448-1,1-1h44.844C54.975,42.906,55.422,43.354,55.422,43.906z"/></svg>